<?xml version="1.0" encoding="UTF-8"?>
<svg xmlns="http://www.w3.org/2000/svg" xmlns:xlink="http://www.w3.org/1999/xlink" version="1.1" width="101.6mm" height="76.2mm" viewBox="0 0 101.6 76.2" style="stroke:black;fill:black" stroke-width="0.5">
<g stroke="none" stroke-width="0.3" font-family="Helvetic,Arial,sans" fill="#000000" font-size="3.88">
  <g class="plotroot xscalable yscalable">
    <g stroke="none" font-family="'PT Sans','Helvetica Neue','Helvetica',sans-serif" fill="#4C404B" font-size="3.18" class="guide ylabels">
      <text x="26.31" y="42.26" text-anchor="end" style="dominant-baseline:central">200</text>
      <text x="26.31" y="30.32" text-anchor="end" style="dominant-baseline:central">400</text>
      <text x="26.31" y="18.38" text-anchor="end" style="dominant-baseline:central">600</text>
      <text x="26.31" y="6.43" text-anchor="end" style="dominant-baseline:central">800</text>
      <text x="26.31" y="54.21" text-anchor="end" style="dominant-baseline:central">0</text>
    </g>
    <g stroke="none" font-family="'PT Sans','Helvetica Neue','Helvetica',sans-serif" fill="#362A35" font-size="3.88">
      <text x="8.63" y="30.32" text-anchor="middle" style="dominant-baseline:central" transform="rotate(-90, 8.63, 30.32)">y</text>
    </g>
    <g stroke="none" font-family="'PT Sans','Helvetica Neue','Helvetica',sans-serif" fill="#4C404B" font-size="3.18" class="guide xlabels">
      <text x="61.95" y="60.94" text-anchor="middle">50</text>
      <text x="94.64" y="60.94" text-anchor="middle">100</text>
      <text x="29.27" y="60.94" text-anchor="middle">0</text>
    </g>
    <g stroke="none" font-family="'PT Sans','Helvetica Neue','Helvetica',sans-serif" fill="#362A35" font-size="3.88">
      <text x="61.95" y="69.2" text-anchor="middle">x</text>
    </g>
    <g>
      <g clip-path="url(#clippath1)">
        <g opacity="1" stroke="#F1F1F5" fill="#FAFAFA" class="guide background">
          <path d="M27.31,5 L 96.6 5 96.6 55.64 27.31 55.64 z" />
        </g>
        <g stroke="#F0F0F3" stroke-width="0.2" class="guide ygridlines xfixed">
          <path d="M27.31,113.92 L 96.6 113.92" />
          <path d="M27.31,42.26 L 96.6 42.26" />
          <path d="M27.31,78.09 L 96.6 78.09" />
          <path d="M27.31,18.38 L 96.6 18.38" />
          <path d="M27.31,6.43 L 96.6 6.43" />
          <path d="M27.31,90.04 L 96.6 90.04" />
          <path d="M27.31,54.21 L 96.6 54.21" />
          <path d="M27.31,66.15 L 96.6 66.15" />
          <path d="M27.31,-41.34 L 96.6 -41.34" />
          <path d="M27.31,-5.51 L 96.6 -5.51" />
          <path d="M27.31,-53.28 L 96.6 -53.28" />
          <path d="M27.31,101.98 L 96.6 101.98" />
          <path d="M27.31,30.32 L 96.6 30.32" />
          <path d="M27.31,-17.45 L 96.6 -17.45" />
          <path d="M27.31,-29.4 L 96.6 -29.4" />
        </g>
        <g stroke="#F0F0F3" stroke-width="0.2" class="guide xgridlines yfixed">
          <path d="M-36.1,5 L -36.1 55.64" />
          <path d="M-3.42,5 L -3.42 55.64" />
          <path d="M160.01,5 L 160.01 55.64" />
          <path d="M192.69,5 L 192.69 55.64" />
          <path d="M29.27,5 L 29.27 55.64" />
          <path d="M127.32,5 L 127.32 55.64" />
          <path d="M94.64,5 L 94.64 55.64" />
          <path d="M-68.79,5 L -68.79 55.64" />
          <path d="M61.95,5 L 61.95 55.64" />
        </g>
      </g>
      <g clip-path="url(#clippath2)">
        <g class="plotpanel">
          <g stroke-width="0.3" fill="none">
            <g stroke="#00BFFF" class="geometry">
              <path d="M29.27,49.44 L 29.43 53.31 29.6 53.13 29.76 52.82 29.92 52.28 30.09 51.28 30.25 49.48 30.41 46.55 30.58 44.09 30.74 43.17 30.9 43.01 31.07 43.22 31.23 43.59 31.39 44.03 31.56 44.5 31.72 44.96 31.88 45.41 32.05 45.84 32.21 46.26 32.37 46.66 32.54 47.03 32.7 47.39 32.86 47.73 33.03 48.06 33.19 48.36 33.35 48.66 33.52 48.93 33.68 49.2 33.84 49.45 34.01 49.68 34.17 49.91 34.34 50.13 34.5 50.33 34.66 50.52 34.83 50.71 34.99 50.88 35.15 51.05 35.32 51.21 35.48 51.36 35.64 51.5 35.81 51.63 35.97 51.76 36.13 51.89 36.3 52 36.46 52.11 36.62 52.22 36.79 52.32 36.95 52.41 37.11 52.5 37.28 52.59 37.44 52.67 37.6 52.74 37.77 52.82 37.93 52.89 38.09 52.95 38.26 53.02 38.42 53.07 38.58 53.13 38.75 53.19 38.91 53.24 39.07 53.28 39.24 53.33 39.4 53.37 39.56 53.42 39.73 53.46 39.89 53.49 40.06 53.53 40.22 53.56 40.38 53.59 40.55 53.63 40.71 53.65 40.87 53.68 41.04 53.71 41.2 53.73 41.36 53.76 41.53 53.78 41.69 53.8 41.85 53.82 42.02 53.84 42.18 53.86 42.34 53.87 42.51 53.89 42.67 53.9 42.83 53.91 43 53.92 43.16 53.93 43.32 53.94 43.49 53.94 43.65 53.94 43.81 53.93 43.98 53.91 44.14 53.86 44.3 53.79 44.47 53.65 44.63 53.36 44.79 52.74 44.96 51.24 45.12 47.42 45.28 39.72 45.45 36.43 45.61 35.31 45.77 35.25 45.94 35.7 46.1 36.37 46.27 37.14 46.43 37.93 46.59 38.71 46.76 39.47 46.92 40.2 47.08 40.89 47.25 41.56 47.41 42.19 47.57 42.79 47.74 43.36 47.9 43.9 48.06 44.42 48.23 44.91 48.39 45.37 48.55 45.81 48.72 46.23 48.88 46.63 49.04 47.01 49.21 47.37 49.37 47.71 49.53 48.04 49.7 48.35 49.86 48.64 50.02 48.92 50.19 49.18 50.35 49.43 50.51 49.67 50.68 49.9 50.84 50.11 51 50.32 51.17 50.51 51.33 50.7 51.49 50.87 51.66 51.04 51.82 51.2 51.99 51.35 52.15 51.49 52.31 51.63 52.48 51.76 52.64 51.88 52.8 52 52.97 52.11 53.13 52.21 53.29 52.31 53.46 52.41 53.62 52.5 53.78 52.58 53.95 52.66 54.11 52.74 54.27 52.81 54.44 52.88 54.6 52.95 54.76 53.01 54.93 53.07 55.09 53.13 55.25 53.18 55.42 53.23 55.58 53.28 55.74 53.33 55.91 53.37 56.07 53.41 56.23 53.45 56.4 53.49 56.56 53.53 56.72 53.56 56.89 53.59 57.05 53.62 57.21 53.65 57.38 53.68 57.54 53.71 57.7 53.73 57.87 53.76 58.03 53.78 58.2 53.8 58.36 53.82 58.52 53.84 58.69 53.86 58.85 53.88 59.01 53.89 59.18 53.91 59.34 53.92 59.5 53.94 59.67 53.95 59.83 53.96 59.99 53.98 60.16 53.99 60.32 54 60.48 54.01 60.65 54.02 60.81 54.03 60.97 54.04 61.14 54.04 61.3 54.05 61.46 54.06 61.63 54.07 61.79 54.07 61.95 54.08 62.12 54.08 62.28 54.09 62.44 54.09 62.61 54.1 62.77 54.1 62.93 54.1 63.1 54.09 63.26 54.08 63.42 54.07 63.59 54.03 63.75 53.97 63.92 53.84 64.08 53.54 64.24 52.73 64.41 50.2 64.57 41.55 64.73 31.27 64.9 26.96 65.06 25.6 65.22 25.66 65.39 26.41 65.55 27.46 65.71 28.62 65.88 29.82 66.04 31 66.2 32.13 66.37 33.23 66.53 34.27 66.69 35.27 66.86 36.21 67.02 37.11 67.18 37.96 67.35 38.78 67.51 39.55 67.67 40.28 67.84 40.98 68 41.64 68.16 42.27 68.33 42.86 68.49 43.43 68.65 43.97 68.82 44.48 68.98 44.97 69.14 45.43 69.31 45.87 69.47 46.29 69.63 46.68 69.8 47.06 69.96 47.42 70.13 47.76 70.29 48.08 70.45 48.38 70.62 48.68 70.78 48.95 70.94 49.21 71.11 49.46 71.27 49.7 71.43 49.93 71.6 50.14 71.76 50.34 71.92 50.54 72.09 50.72 72.25 50.89 72.41 51.06 72.58 51.22 72.74 51.37 72.9 51.51 73.07 51.64 73.23 51.77 73.39 51.89 73.56 52.01 73.72 52.12 73.88 52.22 74.05 52.32 74.21 52.42 74.37 52.51 74.54 52.59 74.7 52.67 74.86 52.75 75.03 52.82 75.19 52.89 75.35 52.96 75.52 53.02 75.68 53.08 75.85 53.14 76.01 53.19 76.17 53.24 76.34 53.29 76.5 53.33 76.66 53.38 76.83 53.42 76.99 53.46 77.15 53.5 77.32 53.53 77.48 53.57 77.64 53.6 77.81 53.63 77.97 53.66 78.13 53.68 78.3 53.71 78.46 53.74 78.62 53.76 78.79 53.78 78.95 53.8 79.11 53.82 79.28 53.84 79.44 53.86 79.6 53.88 79.77 53.89 79.93 53.91 80.09 53.92 80.26 53.94 80.42 53.95 80.58 53.96 80.75 53.98 80.91 53.99 81.07 54 81.24 54.01 81.4 54.02 81.56 54.03 81.73 54.04 81.89 54.05 82.06 54.05 82.22 54.06 82.38 54.07 82.55 54.08 82.71 54.08 82.87 54.09 83.04 54.09 83.2 54.1 83.36 54.11 83.53 54.11 83.69 54.12 83.85 54.12 84.02 54.12 84.18 54.13 84.34 54.13 84.51 54.14 84.67 54.14 84.83 54.14 85 54.14 85.16 54.15 85.32 54.15 85.49 54.15 85.65 54.15 85.81 54.15 85.98 54.15 86.14 54.14 86.3 54.13 86.47 54.11 86.63 54.08 86.79 53.99 86.96 53.79 87.12 53.21 87.28 51.18 87.45 42.92 87.61 27.01 87.78 20.13 87.94 17.71 88.1 17.48 88.27 18.29 88.43 19.57 88.59 21.04 88.76 22.57 88.92 24.09 89.08 25.56 89.25 26.98 89.41 28.33 89.57 29.62 89.74 30.85 89.9 32.02 90.06 33.12 90.23 34.18 90.39 35.18 90.55 36.13 90.72 37.03 90.88 37.89 91.04 38.71 91.21 39.48 91.37 40.22 91.53 40.92 91.7 41.58 91.86 42.21 92.02 42.81 92.19 43.38 92.35 43.93 92.51 44.44 92.68 44.93 92.84 45.39 93 45.83 93.17 46.25 93.33 46.65 93.49 47.03 93.66 47.39 93.82 47.73 93.99 48.05 94.15 48.36 94.31 48.65 94.48 48.93 94.64 49.19" />
            </g>
          </g>
        </g>
      </g>
      <g clip-path="url(#clippath3)">
      </g>
    </g>
  </g>
</g>
<defs>
<clipPath id="clippath1">
  <path d="M27.31,5 L 96.6 5 96.6 55.64 27.31 55.64" />
</clipPath
><clipPath id="clippath2">
  <path d="M27.31,5 L 96.6 5 96.6 55.64 27.31 55.64" />
</clipPath
><clipPath id="clippath3">
  <path d="M27.31,5 L 96.6 5 96.6 55.64 27.31 55.64" />
</clipPath
></defs>
</svg>
