<?xml version="1.0" encoding="UTF-8"?>
<svg xmlns="http://www.w3.org/2000/svg" xmlns:xlink="http://www.w3.org/1999/xlink" version="1.1" width="101.6mm" height="76.2mm" viewBox="0 0 101.6 76.2" style="stroke:black;fill:black" stroke-width="0.5">
<g stroke="none" stroke-width="0.3" font-family="Helvetic,Arial,sans" fill="#000000" font-size="3.88">
  <g class="plotroot xscalable yscalable">
    <g stroke="none" font-family="'PT Sans','Helvetica Neue','Helvetica',sans-serif" fill="#4C404B" font-size="3.18" class="guide ylabels">
      <text x="23.7" y="30.32" text-anchor="end" style="dominant-baseline:central">200</text>
      <text x="23.7" y="6.43" text-anchor="end" style="dominant-baseline:central">400</text>
      <text x="23.7" y="18.38" text-anchor="end" style="dominant-baseline:central">300</text>
      <text x="23.7" y="54.21" text-anchor="end" style="dominant-baseline:central">0</text>
      <text x="23.7" y="42.26" text-anchor="end" style="dominant-baseline:central">100</text>
    </g>
    <g stroke="none" font-family="'PT Sans','Helvetica Neue','Helvetica',sans-serif" fill="#362A35" font-size="3.88">
      <text x="8.63" y="30.32" text-anchor="middle" style="dominant-baseline:central" transform="rotate(-90, 8.63, 30.32)">y</text>
    </g>
    <g stroke="none" font-family="'PT Sans','Helvetica Neue','Helvetica',sans-serif" fill="#4C404B" font-size="3.18" class="guide xlabels">
      <text x="60.65" y="60.94" text-anchor="middle">50</text>
      <text x="94.57" y="60.94" text-anchor="middle">100</text>
      <text x="26.73" y="60.94" text-anchor="middle">0</text>
    </g>
    <g stroke="none" font-family="'PT Sans','Helvetica Neue','Helvetica',sans-serif" fill="#362A35" font-size="3.88">
      <text x="60.65" y="69.2" text-anchor="middle">x</text>
    </g>
    <g>
      <g clip-path="url(#clippath1)">
        <g opacity="1" stroke="#F1F1F5" fill="#FAFAFA" class="guide background">
          <path d="M24.7,5 L 96.6 5 96.6 55.64 24.7 55.64 z" />
        </g>
        <g stroke="#F0F0F3" stroke-width="0.2" class="guide ygridlines xfixed">
          <path d="M24.7,-5.51 L 96.6 -5.51" />
          <path d="M24.7,30.32 L 96.6 30.32" />
          <path d="M24.7,6.43 L 96.6 6.43" />
          <path d="M24.7,101.98 L 96.6 101.98" />
          <path d="M24.7,-17.45 L 96.6 -17.45" />
          <path d="M24.7,54.21 L 96.6 54.21" />
          <path d="M24.7,42.26 L 96.6 42.26" />
          <path d="M24.7,78.09 L 96.6 78.09" />
          <path d="M24.7,90.04 L 96.6 90.04" />
          <path d="M24.7,-41.34 L 96.6 -41.34" />
          <path d="M24.7,-53.28 L 96.6 -53.28" />
          <path d="M24.7,18.38 L 96.6 18.38" />
          <path d="M24.7,-29.4 L 96.6 -29.4" />
          <path d="M24.7,113.92 L 96.6 113.92" />
          <path d="M24.7,66.15 L 96.6 66.15" />
        </g>
        <g stroke="#F0F0F3" stroke-width="0.2" class="guide xgridlines yfixed">
          <path d="M-41.1,5 L -41.1 55.64" />
          <path d="M-7.18,5 L -7.18 55.64" />
          <path d="M162.4,5 L 162.4 55.64" />
          <path d="M196.31,5 L 196.31 55.64" />
          <path d="M26.73,5 L 26.73 55.64" />
          <path d="M128.48,5 L 128.48 55.64" />
          <path d="M94.57,5 L 94.57 55.64" />
          <path d="M-75.02,5 L -75.02 55.64" />
          <path d="M60.65,5 L 60.65 55.64" />
        </g>
      </g>
      <g clip-path="url(#clippath2)">
        <g class="plotpanel">
          <g stroke-width="0.3" fill="none">
            <g stroke="#00BFFF" class="geometry">
              <path d="M26.73,54.21 L 26.9 50.62 27.07 49.37 27.24 47.82 27.41 46.11 27.58 44.68 27.75 44.58 27.92 47.39 28.09 50.8 28.26 52.5 28.43 53.35 28.6 53.78 28.77 53.99 28.94 54.1 29.11 54.15 29.28 54.18 29.45 54.19 29.62 54.2 29.79 54.2 29.95 54.21 30.12 54.21 30.29 54.21 30.46 54.21 30.63 54.21 30.8 54.21 30.97 54.21 31.14 54.21 31.31 54.21 31.48 54.21 31.65 54.21 31.82 54.21 31.99 54.21 32.16 54.21 32.33 54.21 32.5 54.21 32.67 54.21 32.84 54.21 33.01 54.21 33.18 54.21 33.35 54.21 33.52 54.21 33.69 54.21 33.86 54.21 34.02 54.21 34.19 54.21 34.36 54.21 34.53 54.21 34.7 54.21 34.87 54.21 35.04 54.21 35.21 54.21 35.38 54.21 35.55 54.21 35.72 54.21 35.89 54.21 36.06 54.21 36.23 54.21 36.4 54.21 36.57 54.21 36.74 54.21 36.91 54.21 37.08 54.21 37.25 54.21 37.42 54.21 37.59 54.21 37.76 54.21 37.93 54.21 38.09 54.21 38.26 54.21 38.43 54.21 38.6 54.2 38.77 54.2 38.94 54.2 39.11 54.2 39.28 54.2 39.45 54.2 39.62 54.19 39.79 54.19 39.96 54.18 40.13 54.16 40.3 54.14 40.47 54.11 40.64 54.07 40.81 54.01 40.98 53.92 41.15 53.8 41.32 53.61 41.49 53.34 41.66 52.94 41.83 52.36 42 51.53 42.16 50.32 42.33 48.6 42.5 46.19 42.67 42.93 42.84 38.89 43.01 34.99 43.18 34.92 43.35 44.56 43.52 49.38 43.69 51.8 43.86 53 44.03 53.6 44.2 53.91 44.37 54.06 44.54 54.13 44.71 54.17 44.88 54.19 45.05 54.2 45.22 54.2 45.39 54.2 45.56 54.21 45.73 54.21 45.9 54.21 46.07 54.21 46.23 54.21 46.4 54.21 46.57 54.21 46.74 54.21 46.91 54.21 47.08 54.21 47.25 54.21 47.42 54.21 47.59 54.21 47.76 54.21 47.93 54.21 48.1 54.21 48.27 54.21 48.44 54.21 48.61 54.21 48.78 54.21 48.95 54.21 49.12 54.21 49.29 54.21 49.46 54.21 49.63 54.21 49.8 54.21 49.97 54.21 50.14 54.21 50.3 54.21 50.47 54.21 50.64 54.21 50.81 54.21 50.98 54.21 51.15 54.21 51.32 54.21 51.49 54.21 51.66 54.21 51.83 54.21 52 54.21 52.17 54.21 52.34 54.21 52.51 54.21 52.68 54.21 52.85 54.21 53.02 54.21 53.19 54.21 53.36 54.21 53.53 54.21 53.7 54.21 53.87 54.21 54.04 54.21 54.2 54.21 54.37 54.21 54.54 54.21 54.71 54.21 54.88 54.21 55.05 54.21 55.22 54.21 55.39 54.21 55.56 54.21 55.73 54.21 55.9 54.21 56.07 54.21 56.24 54.21 56.41 54.21 56.58 54.21 56.75 54.21 56.92 54.21 57.09 54.21 57.26 54.21 57.43 54.21 57.6 54.21 57.77 54.21 57.94 54.21 58.11 54.21 58.27 54.21 58.44 54.21 58.61 54.21 58.78 54.21 58.95 54.2 59.12 54.2 59.29 54.2 59.46 54.2 59.63 54.2 59.8 54.19 59.97 54.18 60.14 54.17 60.31 54.15 60.48 54.13 60.65 54.09 60.82 54.03 60.99 53.95 61.16 53.83 61.33 53.65 61.5 53.38 61.67 52.98 61.84 52.39 62.01 51.51 62.18 50.22 62.34 48.33 62.51 45.56 62.68 41.57 62.85 36.02 63.02 28.96 63.19 22.59 63.36 28.02 63.53 41.11 63.7 47.66 63.87 50.93 64.04 52.57 64.21 53.39 64.38 53.8 64.55 54 64.72 54.1 64.89 54.16 65.06 54.18 65.23 54.19 65.4 54.2 65.57 54.2 65.74 54.21 65.91 54.21 66.08 54.21 66.25 54.21 66.41 54.21 66.58 54.21 66.75 54.21 66.92 54.21 67.09 54.21 67.26 54.21 67.43 54.21 67.6 54.21 67.77 54.21 67.94 54.21 68.11 54.21 68.28 54.21 68.45 54.21 68.62 54.21 68.79 54.21 68.96 54.21 69.13 54.21 69.3 54.21 69.47 54.21 69.64 54.21 69.81 54.21 69.98 54.21 70.15 54.21 70.32 54.21 70.48 54.21 70.65 54.21 70.82 54.21 70.99 54.21 71.16 54.21 71.33 54.21 71.5 54.21 71.67 54.21 71.84 54.21 72.01 54.21 72.18 54.21 72.35 54.21 72.52 54.21 72.69 54.21 72.86 54.21 73.03 54.21 73.2 54.21 73.37 54.21 73.54 54.21 73.71 54.21 73.88 54.21 74.05 54.21 74.22 54.21 74.38 54.21 74.55 54.21 74.72 54.21 74.89 54.21 75.06 54.21 75.23 54.21 75.4 54.21 75.57 54.21 75.74 54.21 75.91 54.21 76.08 54.21 76.25 54.21 76.42 54.21 76.59 54.21 76.76 54.21 76.93 54.21 77.1 54.21 77.27 54.21 77.44 54.21 77.61 54.21 77.78 54.21 77.95 54.21 78.12 54.21 78.29 54.21 78.45 54.21 78.62 54.21 78.79 54.21 78.96 54.21 79.13 54.21 79.3 54.21 79.47 54.21 79.64 54.21 79.81 54.21 79.98 54.21 80.15 54.21 80.32 54.21 80.49 54.21 80.66 54.21 80.83 54.21 81 54.21 81.17 54.21 81.34 54.21 81.51 54.21 81.68 54.21 81.85 54.21 82.02 54.21 82.19 54.21 82.36 54.21 82.52 54.21 82.69 54.2 82.86 54.2 83.03 54.2 83.2 54.2 83.37 54.2 83.54 54.19 83.71 54.18 83.88 54.17 84.05 54.15 84.22 54.13 84.39 54.09 84.56 54.03 84.73 53.94 84.9 53.81 85.07 53.61 85.24 53.32 85.41 52.89 85.58 52.24 85.75 51.27 85.92 49.84 86.09 47.71 86.26 44.56 86.43 39.94 86.59 33.32 86.76 24.33 86.93 14.38 87.1 14.67 87.27 34.44 87.44 44.32 87.61 49.26 87.78 51.74 87.95 52.97 88.12 53.59 88.29 53.9 88.46 54.05 88.63 54.13 88.8 54.17 88.97 54.19 89.14 54.2 89.31 54.2 89.48 54.2 89.65 54.21 89.82 54.21 89.99 54.21 90.16 54.21 90.33 54.21 90.5 54.21 90.66 54.21 90.83 54.21 91 54.21 91.17 54.21 91.34 54.21 91.51 54.21 91.68 54.21 91.85 54.21 92.02 54.21 92.19 54.21 92.36 54.21 92.53 54.21 92.7 54.21 92.87 54.21 93.04 54.21 93.21 54.21 93.38 54.21 93.55 54.21 93.72 54.21 93.89 54.21 94.06 54.21 94.23 54.21 94.4 54.21 94.57 54.21" />
            </g>
          </g>
        </g>
      </g>
      <g clip-path="url(#clippath3)">
      </g>
    </g>
  </g>
</g>
<defs>
<clipPath id="clippath1">
  <path d="M24.7,5 L 96.6 5 96.6 55.64 24.7 55.64" />
</clipPath
><clipPath id="clippath2">
  <path d="M24.7,5 L 96.6 5 96.6 55.64 24.7 55.64" />
</clipPath
><clipPath id="clippath3">
  <path d="M24.7,5 L 96.6 5 96.6 55.64 24.7 55.64" />
</clipPath
></defs>
</svg>
